<svg width="24" height="30" viewBox="0 0 24 30" fill="none" xmlns="http://www.w3.org/2000/svg">
<path d="M21.5749 6.9942L18.6166 5.58923L18.77 5.26632C19.4412 3.8531 18.8375 2.15722 17.4243 1.48594L14.8763 0.275848C14.1918 -0.0493849 13.4217 -0.0882566 12.7075 0.165782C11.9934 0.419927 11.4211 0.936984 11.096 1.62157L10.9426 1.94448L7.98438 0.539394C6.43659 -0.195576 4.57899 0.465665 3.8437 2.01345L3.08634 3.60783C2.96613 3.86091 2.95145 4.1514 3.04535 4.41526C3.13936 4.67923 3.33425 4.89503 3.58734 5.01523L11.427 8.73868H1.05624C0.760799 8.73868 0.478979 8.86237 0.279022 9.07975C0.0789601 9.29725 -0.0208598 9.58836 0.00364621 9.88275L1.39194 26.5412C1.55355 28.4807 3.20475 30 5.15108 30H12.9191C14.8653 30 16.5165 28.4807 16.6781 26.5412L17.9053 11.8156L20.8846 13.2306C21.0309 13.3001 21.1851 13.3329 21.337 13.3329C21.7321 13.3329 22.1111 13.1103 22.2919 12.7296L23.0492 11.1353C23.784 9.58709 23.1228 7.72949 21.5749 6.9942ZM13.0043 2.52787C13.0873 2.35305 13.2335 2.22102 13.4159 2.15595C13.5985 2.09109 13.7951 2.10092 13.9699 2.18415L16.5178 3.39414C16.8788 3.56568 17.033 3.99897 16.8616 4.36001L16.7082 4.68292L12.8508 2.85089L13.0043 2.52787ZM14.5726 26.3656C14.5015 27.2188 13.7751 27.8872 12.919 27.8872H5.15097C4.29474 27.8872 3.56833 27.2188 3.49724 26.3656L2.20433 10.8512H15.8656L14.5726 26.3656ZM21.1405 10.2287L20.8365 10.8688L5.4479 3.55987L5.75201 2.91965C5.98745 2.42372 6.58257 2.21214 7.07808 2.44759L20.6685 8.9024C21.1643 9.13796 21.3761 9.73297 21.1405 10.2287Z" fill="#2C3036"/>
</svg>
